<?xml version="1.0" encoding="utf-8"?>
<!-- Generator: Adobe Illustrator 18.1.0, SVG Export Plug-In . SVG Version: 6.00 Build 0)  -->
<!DOCTYPE svg PUBLIC "-//W3C//DTD SVG 1.1//EN" "http://www.w3.org/Graphics/SVG/1.1/DTD/svg11.dtd">
<svg version="1.1" id="Layer_1" xmlns="http://www.w3.org/2000/svg" xmlns:xlink="http://www.w3.org/1999/xlink" x="0px" y="0px"
	 width="178.6px" height="266.8px" viewBox="80.6 495.3 178.6 266.8" enable-background="new 80.6 495.3 178.6 266.8"
	 xml:space="preserve">
<circle fill="#009BA7" cx="170" cy="561.8" r="66.5"/>
<g>
	<path fill="#EB5D0B" d="M213.8,591.3c-3.6-32.9-43.9-29.4-43.9-29.4s-40.3-3.4-43.9,29.4c-9.6,17.6-80.8,142.4-22.9,115.5
		s31,56.8,66.9,55.3c35.9,1.5,9-82.2,66.9-55.3C294.6,733.7,223.4,609,213.8,591.3z"/>
	<path fill="#EC8141" d="M206.6,588.5c-3-27.4-36.6-24.5-36.6-24.5s-33.6-2.9-36.6,24.5c-8,14.7-67.4,118.7-19.1,96.3
		s25.8,47.3,55.7,46.1c29.9,1.2,7.5-68.5,55.7-46.1S214.5,603.2,206.6,588.5z"/>
	<path fill="#EEA476" d="M199.3,585.6c-2.4-21.9-29.3-19.7-29.3-19.7s-26.9-2.3-29.3,19.7c-6.4,11.8-53.9,95.1-15.3,77.1
		s20.7,37.9,44.6,36.9c23.9,1,6-54.9,44.6-36.9S205.7,597.4,199.3,585.6z"/>
	<path fill="#EFC8AC" d="M192,582.7c-1.8-16.5-22-14.8-22-14.8s-20.2-1.7-22,14.8c-4.8,8.8-40.5,71.4-11.5,57.9
		c29-13.5,15.5,28.5,33.5,27.7c18,0.7,4.5-41.2,33.5-27.7C232.5,654.1,196.8,591.5,192,582.7z"/>
	<path fill="#F0EBE2" d="M184.7,579.8c-1.2-11-14.7-9.9-14.7-9.9s-13.5-1.2-14.7,9.9c-3.2,5.9-27.1,47.7-7.7,38.7s10.4,19,22.4,18.5
		c12,0.5,3-27.5,22.4-18.5S187.9,585.7,184.7,579.8z"/>
</g>
<circle fill="#FFDD00" stroke="#EB5D0B" stroke-width="10" stroke-miterlimit="10" cx="170" cy="561.8" r="42.1"/>
</svg>
