<?xml version="1.0" encoding="utf-8"?>
<!-- Generator: Adobe Illustrator 18.1.0, SVG Export Plug-In . SVG Version: 6.00 Build 0)  -->
<!DOCTYPE svg PUBLIC "-//W3C//DTD SVG 1.1//EN" "http://www.w3.org/Graphics/SVG/1.1/DTD/svg11.dtd">
<svg version="1.1" id="Layer_1" xmlns="http://www.w3.org/2000/svg" xmlns:xlink="http://www.w3.org/1999/xlink" x="0px" y="0px"
	 width="167.4px" height="171.7px" viewBox="-395 195.3 167.4 171.7" enable-background="new -395 195.3 167.4 171.7"
	 xml:space="preserve">
<path fill="#009BA7" d="M616.7,636.9c-4.7-24.6-21.5-40.3-51.7-40.3s-47,15.7-51.7,40.3c-4.7,24.7-8.7,131.3-8.7,131.3H565h60.4
	C625.4,768.2,621.4,661.6,616.7,636.9z"/>
<path fill="#3A777B" d="M648.3,765.8c-43.7-56.8-47.5-119-53.9-130.8c-2.4-22-29.4-20.7-29.4-20.7s-27-1.3-29.4,20.7
	c-6.4,11.8-10.2,74-53.9,130.8c-29.4,38.2,54-4.5,83.3,65.5C594.3,761.3,677.7,804,648.3,765.8z"/>
<circle fill="#009BA7" cx="618" cy="701.6" r="30.7"/>
<circle cx="618" cy="701.6" r="23.7"/>
<circle fill="#FFFFFF" cx="618" cy="701.6" r="17.2"/>
<circle fill="#2DB9DD" cx="618" cy="701.6" r="9.9"/>
<path fill="#3A777B" d="M587.3,701.6c0,16.9,13.7,30.7,30.7,30.7s30.7-13.7,30.7-30.7H587.3z"/>
<circle fill="#2C595C" cx="588.4" cy="629.4" r="12.4"/>
<circle fill="#009BA7" cx="512" cy="701.6" r="30.7"/>
<circle cx="512" cy="701.6" r="23.7"/>
<circle fill="#FFFFFF" cx="512" cy="701.6" r="17.2"/>
<circle fill="#2DB9DD" cx="512" cy="701.6" r="9.9"/>
<path fill="#3A777B" d="M542.7,701.6c0,16.9-13.7,30.7-30.7,30.7s-30.7-13.7-30.7-30.7H542.7z"/>
<circle fill="#2C595C" cx="541.6" cy="629.4" r="12.4"/>
</svg>
