<?xml version="1.0" encoding="utf-8"?>
<!-- Generator: Adobe Illustrator 18.1.0, SVG Export Plug-In . SVG Version: 6.00 Build 0)  -->
<!DOCTYPE svg PUBLIC "-//W3C//DTD SVG 1.1//EN" "http://www.w3.org/Graphics/SVG/1.1/DTD/svg11.dtd">
<svg version="1.1" id="Layer_1" xmlns="http://www.w3.org/2000/svg" xmlns:xlink="http://www.w3.org/1999/xlink" x="0px" y="0px"
	 width="167.4px" height="171.7px" viewBox="876.3 401.3 167.4 171.7" enable-background="new 876.3 401.3 167.4 171.7"
	 xml:space="preserve">
<path fill="#009BA7" d="M1011.7,441.6c-4.7-24.6-21.5-40.3-51.7-40.3s-47,15.7-51.7,40.3c-4.7,24.7-8.7,131.3-8.7,131.3H960h60.4
	C1020.4,572.9,1016.4,466.3,1011.7,441.6z"/>
<path fill="#3A777B" d="M989.4,439.7C987,417.7,960,419,960,419s-27-1.3-29.4,20.7c-2.3,22-47.3,133.3-47.3,133.3H960h76.7
	C1036.7,573,991.7,461.7,989.4,439.7z"/>
<circle fill="#009BA7" cx="1013" cy="506.3" r="30.7"/>
<circle cx="1013" cy="506.3" r="23.7"/>
<circle fill="#FFFFFF" cx="1013" cy="506.3" r="17.2"/>
<circle fill="#2DB9DD" cx="1013" cy="506.3" r="9.9"/>
<path fill="#3A777B" d="M982.3,506.3c0,16.9,13.7,30.7,30.7,30.7c16.9,0,30.7-13.7,30.7-30.7H982.3z"/>
<circle fill="#009BA7" cx="907" cy="506.3" r="30.7"/>
<circle cx="907" cy="506.3" r="23.7"/>
<circle fill="#FFFFFF" cx="907" cy="506.3" r="17.2"/>
<circle fill="#2DB9DD" cx="907" cy="506.3" r="9.9"/>
<path fill="#3A777B" d="M937.7,506.3c0,16.9-13.7,30.7-30.7,30.7s-30.7-13.7-30.7-30.7H937.7z"/>
<circle fill="#2C595C" cx="936.6" cy="434.1" r="12.4"/>
<circle fill="#2C595C" cx="983.4" cy="434.1" r="12.4"/>
</svg>
