<?xml version="1.0" encoding="utf-8"?>
<!-- Generator: Adobe Illustrator 18.1.0, SVG Export Plug-In . SVG Version: 6.00 Build 0)  -->
<!DOCTYPE svg PUBLIC "-//W3C//DTD SVG 1.1//EN" "http://www.w3.org/Graphics/SVG/1.1/DTD/svg11.dtd">
<svg version="1.1" id="Layer_1" xmlns="http://www.w3.org/2000/svg" xmlns:xlink="http://www.w3.org/1999/xlink" x="0px" y="0px"
	 width="212.2px" height="352.6px" viewBox="0 0 212.2 352.6" enable-background="new 0 0 212.2 352.6" xml:space="preserve">
<path fill="#2B3A42" d="M180.2,86.3C121.3,67.2,138.8,0,106.1,0C73.3,0,90.9,67.2,32,86.3c-61.6,20-15.2,47-15.2,90
	s-46.5,70,15.2,90c58.9,19.1,41.4,86.3,74.1,86.3c32.7,0,15.2-67.2,74.1-86.3c61.6-20,15.2-47,15.2-90S241.8,106.3,180.2,86.3z"/>
<path fill="#556168" d="M163.2,107c-45.3-14.7-31.9-66.4-57.1-66.4C80.9,40.5,94.4,92.3,49,107c-47.5,15.4-11.7,36.2-11.7,69.3
	S1.6,230.2,49,245.6c45.3,14.7,31.9,66.4,57.1,66.4c25.2,0,11.7-51.8,57.1-66.4c47.5-15.4,11.7-36.2,11.7-69.3
	S210.6,122.4,163.2,107z"/>
<path fill="#80898E" d="M146.1,127.7c-31.8-10.3-22.3-46.6-40-46.6c-17.7,0-8.2,36.3-40,46.6c-33.3,10.8-8.2,25.4-8.2,48.6
	s-25.1,37.8,8.2,48.6c31.8,10.3,22.3,46.6,40,46.6c17.7,0,8.2-36.3,40-46.6c33.3-10.8,8.2-25.4,8.2-48.6S179.4,138.5,146.1,127.7z"
	/>
<path fill="#AAB0B3" d="M129.1,148.4c-18.3-5.9-12.8-26.8-23-26.8c-10.2,0-4.7,20.8-23,26.8c-19.1,6.2-4.7,14.6-4.7,27.9
	c0,13.3-14.4,21.7,4.7,27.9c18.3,5.9,12.8,26.8,23,26.8c10.2,0,4.7-20.8,23-26.8c19.1-6.2,4.7-14.6,4.7-27.9
	C133.8,163,148.2,154.6,129.1,148.4z"/>
</svg>
